<?xml version="1.0" encoding="UTF-8" standalone="no"?>
<!-- Created with Inkscape (http://www.inkscape.org/) -->

<svg
   width="100"
   height="100"
   id="svg3513"
   version="1.1"
   inkscape:version="0.48.1 "
   sodipodi:docname="hail.svg"
   xmlns:inkscape="http://www.inkscape.org/namespaces/inkscape"
   xmlns:sodipodi="http://sodipodi.sourceforge.net/DTD/sodipodi-0.dtd"
   xmlns:xlink="http://www.w3.org/1999/xlink"
   xmlns="http://www.w3.org/2000/svg"
   xmlns:svg="http://www.w3.org/2000/svg"
   xmlns:rdf="http://www.w3.org/1999/02/22-rdf-syntax-ns#"
   xmlns:cc="http://creativecommons.org/ns#"
   xmlns:dc="http://purl.org/dc/elements/1.1/">
  <defs
     id="defs3515">
    <linearGradient
       id="linearGradient5409"
       inkscape:swatch="solid">
      <stop
         style="stop-color:#000000;stop-opacity:1;"
         offset="0"
         id="stop5411" />
    </linearGradient>
    <linearGradient
       id="linearGradient5409-4"
       inkscape:swatch="solid">
      <stop
         style="stop-color:#000000;stop-opacity:1;"
         offset="0"
         id="stop5411-3" />
    </linearGradient>
    <linearGradient
       id="linearGradient5409-7"
       inkscape:swatch="solid">
      <stop
         style="stop-color:#000000;stop-opacity:1;"
         offset="0"
         id="stop5411-37" />
    </linearGradient>
    <linearGradient
       id="linearGradient5409-0"
       inkscape:swatch="solid">
      <stop
         style="stop-color:#000000;stop-opacity:1;"
         offset="0"
         id="stop5411-32" />
    </linearGradient>
    <linearGradient
       id="linearGradient5409-8"
       inkscape:swatch="solid">
      <stop
         style="stop-color:#000000;stop-opacity:1;"
         offset="0"
         id="stop5411-1" />
    </linearGradient>
    <linearGradient
       id="linearGradient5409-83"
       inkscape:swatch="solid">
      <stop
         style="stop-color:#000000;stop-opacity:1;"
         offset="0"
         id="stop5411-14" />
    </linearGradient>
    <linearGradient
       id="linearGradient5409-2"
       inkscape:swatch="solid">
      <stop
         style="stop-color:#000000;stop-opacity:1;"
         offset="0"
         id="stop5411-2" />
    </linearGradient>
    <linearGradient
       id="linearGradient5409-3"
       inkscape:swatch="solid">
      <stop
         style="stop-color:#000000;stop-opacity:1;"
         offset="0"
         id="stop5411-6" />
    </linearGradient>
    <linearGradient
       id="linearGradient5409-34"
       inkscape:swatch="solid">
      <stop
         style="stop-color:#000000;stop-opacity:1;"
         offset="0"
         id="stop5411-8" />
    </linearGradient>
    <linearGradient
       id="linearGradient5409-73"
       inkscape:swatch="solid">
      <stop
         style="stop-color:#000000;stop-opacity:1;"
         offset="0"
         id="stop5411-7" />
    </linearGradient>
    <linearGradient
       id="linearGradient5409-1"
       inkscape:swatch="solid">
      <stop
         style="stop-color:#000000;stop-opacity:1;"
         offset="0"
         id="stop5411-63" />
    </linearGradient>
    <linearGradient
       id="linearGradient5409-20"
       inkscape:swatch="solid">
      <stop
         style="stop-color:#000000;stop-opacity:1;"
         offset="0"
         id="stop5411-0" />
    </linearGradient>
    <linearGradient
       id="linearGradient5409-9"
       inkscape:swatch="solid">
      <stop
         style="stop-color:#000000;stop-opacity:1;"
         offset="0"
         id="stop5411-73" />
    </linearGradient>
    <linearGradient
       id="linearGradient5409-75"
       inkscape:swatch="solid">
      <stop
         style="stop-color:#000000;stop-opacity:1;"
         offset="0"
         id="stop5411-83" />
    </linearGradient>
    <linearGradient
       id="linearGradient5409-11"
       inkscape:swatch="solid">
      <stop
         style="stop-color:#000000;stop-opacity:1;"
         offset="0"
         id="stop5411-60" />
    </linearGradient>
    <linearGradient
       id="linearGradient5409-18"
       inkscape:swatch="solid">
      <stop
         style="stop-color:#000000;stop-opacity:1;"
         offset="0"
         id="stop5411-33" />
    </linearGradient>
    <linearGradient
       id="linearGradient5409-5"
       inkscape:swatch="solid">
      <stop
         style="stop-color:#000000;stop-opacity:1;"
         offset="0"
         id="stop5411-5" />
    </linearGradient>
    <linearGradient
       id="linearGradient5409-6"
       inkscape:swatch="solid">
      <stop
         style="stop-color:#000000;stop-opacity:1;"
         offset="0"
         id="stop5411-57" />
    </linearGradient>
    <linearGradient
       id="linearGradient5409-59"
       inkscape:swatch="solid">
      <stop
         style="stop-color:#000000;stop-opacity:1;"
         offset="0"
         id="stop5411-28" />
    </linearGradient>
    <linearGradient
       id="linearGradient5305"
       inkscape:swatch="solid">
      <stop
         style="stop-color:#000000;stop-opacity:1;"
         offset="0"
         id="stop5307" />
    </linearGradient>
    <linearGradient
       id="linearGradient5310"
       inkscape:swatch="solid">
      <stop
         style="stop-color:#000000;stop-opacity:1;"
         offset="0"
         id="stop5312" />
    </linearGradient>
    <linearGradient
       id="linearGradient5315"
       inkscape:swatch="solid">
      <stop
         style="stop-color:#000000;stop-opacity:1;"
         offset="0"
         id="stop5317" />
    </linearGradient>
    <linearGradient
       id="linearGradient5320"
       inkscape:swatch="solid">
      <stop
         style="stop-color:#000000;stop-opacity:1;"
         offset="0"
         id="stop5322" />
    </linearGradient>
    <linearGradient
       id="linearGradient5325"
       inkscape:swatch="solid">
      <stop
         style="stop-color:#000000;stop-opacity:1;"
         offset="0"
         id="stop5327" />
    </linearGradient>
    <linearGradient
       id="linearGradient5330"
       inkscape:swatch="solid">
      <stop
         style="stop-color:#000000;stop-opacity:1;"
         offset="0"
         id="stop5332" />
    </linearGradient>
    <linearGradient
       id="linearGradient5335"
       inkscape:swatch="solid">
      <stop
         style="stop-color:#000000;stop-opacity:1;"
         offset="0"
         id="stop5337" />
    </linearGradient>
    <linearGradient
       id="linearGradient5340"
       inkscape:swatch="solid">
      <stop
         style="stop-color:#000000;stop-opacity:1;"
         offset="0"
         id="stop5342" />
    </linearGradient>
    <linearGradient
       id="linearGradient5345"
       inkscape:swatch="solid">
      <stop
         style="stop-color:#000000;stop-opacity:1;"
         offset="0"
         id="stop5347" />
    </linearGradient>
    <linearGradient
       id="linearGradient5409-28"
       inkscape:swatch="solid">
      <stop
         style="stop-color:#000000;stop-opacity:1;"
         offset="0"
         id="stop5411-04" />
    </linearGradient>
    <linearGradient
       id="linearGradient5409-30"
       inkscape:swatch="solid">
      <stop
         style="stop-color:#000000;stop-opacity:1;"
         offset="0"
         id="stop5411-20" />
    </linearGradient>
    <linearGradient
       id="linearGradient5409-89"
       inkscape:swatch="solid">
      <stop
         style="stop-color:#000000;stop-opacity:1;"
         offset="0"
         id="stop5411-4" />
    </linearGradient>
    <linearGradient
       id="linearGradient6037"
       inkscape:swatch="solid">
      <stop
         style="stop-color:#000000;stop-opacity:1;"
         offset="0"
         id="stop6039" />
    </linearGradient>
    <linearGradient
       id="linearGradient6042"
       inkscape:swatch="solid">
      <stop
         style="stop-color:#000000;stop-opacity:1;"
         offset="0"
         id="stop6044" />
    </linearGradient>
    <linearGradient
       id="linearGradient6047"
       inkscape:swatch="solid">
      <stop
         style="stop-color:#000000;stop-opacity:1;"
         offset="0"
         id="stop6049" />
    </linearGradient>
    <linearGradient
       id="linearGradient6052"
       inkscape:swatch="solid">
      <stop
         style="stop-color:#000000;stop-opacity:1;"
         offset="0"
         id="stop6054" />
    </linearGradient>
    <linearGradient
       id="linearGradient6057"
       inkscape:swatch="solid">
      <stop
         style="stop-color:#000000;stop-opacity:1;"
         offset="0"
         id="stop6059" />
    </linearGradient>
    <linearGradient
       id="linearGradient6062"
       inkscape:swatch="solid">
      <stop
         style="stop-color:#000000;stop-opacity:1;"
         offset="0"
         id="stop6064" />
    </linearGradient>
    <linearGradient
       id="linearGradient6067"
       inkscape:swatch="solid">
      <stop
         style="stop-color:#000000;stop-opacity:1;"
         offset="0"
         id="stop6069" />
    </linearGradient>
    <linearGradient
       id="linearGradient6072"
       inkscape:swatch="solid">
      <stop
         style="stop-color:#000000;stop-opacity:1;"
         offset="0"
         id="stop6074" />
    </linearGradient>
    <linearGradient
       id="linearGradient6077"
       inkscape:swatch="solid">
      <stop
         style="stop-color:#000000;stop-opacity:1;"
         offset="0"
         id="stop6079" />
    </linearGradient>
    <linearGradient
       id="linearGradient6083"
       inkscape:swatch="solid">
      <stop
         style="stop-color:#000000;stop-opacity:1;"
         offset="0"
         id="stop6085" />
    </linearGradient>
    <linearGradient
       id="linearGradient6088"
       inkscape:swatch="solid">
      <stop
         style="stop-color:#000000;stop-opacity:1;"
         offset="0"
         id="stop6090" />
    </linearGradient>
    <linearGradient
       id="linearGradient5409-78"
       inkscape:swatch="solid">
      <stop
         style="stop-color:#000000;stop-opacity:1;"
         offset="0"
         id="stop5411-61" />
    </linearGradient>
    <linearGradient
       id="linearGradient5409-87"
       inkscape:swatch="solid">
      <stop
         style="stop-color:#000000;stop-opacity:1;"
         offset="0"
         id="stop5411-52" />
    </linearGradient>
    <linearGradient
       id="linearGradient5409-60"
       inkscape:swatch="solid">
      <stop
         style="stop-color:#000000;stop-opacity:1;"
         offset="0"
         id="stop5411-09" />
    </linearGradient>
    <linearGradient
       id="linearGradient6652"
       inkscape:swatch="solid">
      <stop
         style="stop-color:#000000;stop-opacity:1;"
         offset="0"
         id="stop6654" />
    </linearGradient>
    <linearGradient
       id="linearGradient6657"
       inkscape:swatch="solid">
      <stop
         style="stop-color:#000000;stop-opacity:1;"
         offset="0"
         id="stop6659" />
    </linearGradient>
    <linearGradient
       id="linearGradient6662"
       inkscape:swatch="solid">
      <stop
         style="stop-color:#000000;stop-opacity:1;"
         offset="0"
         id="stop6664" />
    </linearGradient>
    <linearGradient
       id="linearGradient6667"
       inkscape:swatch="solid">
      <stop
         style="stop-color:#000000;stop-opacity:1;"
         offset="0"
         id="stop6669" />
    </linearGradient>
    <linearGradient
       id="linearGradient6672"
       inkscape:swatch="solid">
      <stop
         style="stop-color:#000000;stop-opacity:1;"
         offset="0"
         id="stop6674" />
    </linearGradient>
    <linearGradient
       id="linearGradient6677"
       inkscape:swatch="solid">
      <stop
         style="stop-color:#000000;stop-opacity:1;"
         offset="0"
         id="stop6679" />
    </linearGradient>
    <linearGradient
       id="linearGradient5409-15"
       inkscape:swatch="solid">
      <stop
         style="stop-color:#000000;stop-opacity:1;"
         offset="0"
         id="stop5411-31" />
    </linearGradient>
    <linearGradient
       id="linearGradient5409-836"
       inkscape:swatch="solid">
      <stop
         style="stop-color:#000000;stop-opacity:1;"
         offset="0"
         id="stop5411-74" />
    </linearGradient>
    <linearGradient
       id="linearGradient6959"
       inkscape:swatch="solid">
      <stop
         style="stop-color:#000000;stop-opacity:1;"
         offset="0"
         id="stop6961" />
    </linearGradient>
    <linearGradient
       id="linearGradient6964"
       inkscape:swatch="solid">
      <stop
         style="stop-color:#000000;stop-opacity:1;"
         offset="0"
         id="stop6966" />
    </linearGradient>
    <linearGradient
       id="linearGradient6969"
       inkscape:swatch="solid">
      <stop
         style="stop-color:#000000;stop-opacity:1;"
         offset="0"
         id="stop6971" />
    </linearGradient>
    <linearGradient
       id="linearGradient6974"
       inkscape:swatch="solid">
      <stop
         style="stop-color:#000000;stop-opacity:1;"
         offset="0"
         id="stop6976" />
    </linearGradient>
    <linearGradient
       id="linearGradient6979"
       inkscape:swatch="solid">
      <stop
         style="stop-color:#000000;stop-opacity:1;"
         offset="0"
         id="stop6981" />
    </linearGradient>
    <linearGradient
       id="linearGradient6984"
       inkscape:swatch="solid">
      <stop
         style="stop-color:#000000;stop-opacity:1;"
         offset="0"
         id="stop6986" />
    </linearGradient>
    <linearGradient
       id="linearGradient5409-64"
       inkscape:swatch="solid">
      <stop
         style="stop-color:#000000;stop-opacity:1;"
         offset="0"
         id="stop5411-9" />
    </linearGradient>
    <linearGradient
       id="linearGradient5409-91"
       inkscape:swatch="solid">
      <stop
         style="stop-color:#000000;stop-opacity:1;"
         offset="0"
         id="stop5411-79" />
    </linearGradient>
    <linearGradient
       id="linearGradient5409-74"
       inkscape:swatch="solid">
      <stop
         style="stop-color:#000000;stop-opacity:1;"
         offset="0"
         id="stop5411-93" />
    </linearGradient>
    <linearGradient
       id="linearGradient5409-01"
       inkscape:swatch="solid">
      <stop
         style="stop-color:#000000;stop-opacity:1;"
         offset="0"
         id="stop5411-045" />
    </linearGradient>
    <linearGradient
       id="linearGradient5409-33"
       inkscape:swatch="solid">
      <stop
         style="stop-color:#000000;stop-opacity:1;"
         offset="0"
         id="stop5411-522" />
    </linearGradient>
    <linearGradient
       id="linearGradient5409-891"
       inkscape:swatch="solid">
      <stop
         style="stop-color:#000000;stop-opacity:1;"
         offset="0"
         id="stop5411-15" />
    </linearGradient>
    <filter
       inkscape:collect="always"
       id="filter4435"
       x="-0.10462177"
       width="1.2092435"
       y="-0.11595452"
       height="1.231909"
       color-interpolation-filters="sRGB">
      <feGaussianBlur
         inkscape:collect="always"
         stdDeviation="4.6110333"
         id="feGaussianBlur4437" />
    </filter>
    <linearGradient
       id="linearGradient4704-81">
      <stop
         style="stop-color:#d7d7d7;stop-opacity:1;"
         offset="0"
         id="stop4706-871" />
      <stop
         style="stop-color:#808080;stop-opacity:1;"
         offset="1"
         id="stop4708-99" />
    </linearGradient>
    <linearGradient
       id="linearGradient4712-20">
      <stop
         id="stop4714-4"
         offset="0"
         style="stop-color:#ffffff;stop-opacity:1;" />
      <stop
         id="stop4716-12"
         offset="1"
         style="stop-color:#ffffff;stop-opacity:1;" />
    </linearGradient>
    <linearGradient
       inkscape:collect="always"
       xlink:href="#linearGradient5409-891"
       id="linearGradient7662"
       gradientUnits="userSpaceOnUse"
       x1="-606.32941"
       y1="1623.3613"
       x2="-476.957"
       y2="1623.3613" />
    <linearGradient
       inkscape:collect="always"
       xlink:href="#linearGradient4704-81"
       id="linearGradient7664"
       gradientUnits="userSpaceOnUse"
       gradientTransform="translate(-601.125,1562.3622)"
       x1="58"
       y1="-6.3316477e-08"
       x2="58"
       y2="119.76749" />
    <linearGradient
       inkscape:collect="always"
       xlink:href="#linearGradient4712-20"
       id="linearGradient7666"
       gradientUnits="userSpaceOnUse"
       gradientTransform="matrix(1.066117,0,0,1.066117,-434.66403,710.488)"
       x1="58"
       y1="-6.3316477e-08"
       x2="58"
       y2="119.76749" />
  </defs>
  <sodipodi:namedview
     id="base"
     pagecolor="#ffffff"
     bordercolor="#666666"
     borderopacity="1.0"
     inkscape:pageopacity="0.0"
     inkscape:pageshadow="2"
     inkscape:zoom="1"
     inkscape:cx="-64.51693"
     inkscape:cy="58.5"
     inkscape:document-units="px"
     inkscape:current-layer="layer1"
     showgrid="false"
     inkscape:window-width="876"
     inkscape:window-height="550"
     inkscape:window-x="1879"
     inkscape:window-y="481"
     inkscape:window-maximized="0"
     inkscape:showpageshadow="2"
     inkscape:pagecheckerboard="true"
     inkscape:deskcolor="#d1d1d1" />
  <metadata
     id="metadata3518">
    <rdf:RDF>
      <cc:Work
         rdf:about="">
        <dc:format>image/svg+xml</dc:format>
        <dc:type
           rdf:resource="http://purl.org/dc/dcmitype/StillImage" />
        <dc:creator>
          <cc:Agent>
            <dc:title>MerlinTheRed</dc:title>
          </cc:Agent>
        </dc:creator>
        <dc:source>http://merlinthered.deviantart.com/art/plain-weather-icons-157162192</dc:source>
        <cc:license
           rdf:resource="http://creativecommons.org/licenses/by-nc-sa/4.0/" />
      </cc:Work>
      <cc:License
         rdf:about="http://creativecommons.org/licenses/by-nc-sa/3.0/">
        <cc:permits
           rdf:resource="http://creativecommons.org/ns#Reproduction" />
        <cc:permits
           rdf:resource="http://creativecommons.org/ns#Distribution" />
        <cc:requires
           rdf:resource="http://creativecommons.org/ns#Notice" />
        <cc:requires
           rdf:resource="http://creativecommons.org/ns#Attribution" />
        <cc:prohibits
           rdf:resource="http://creativecommons.org/ns#CommercialUse" />
        <cc:permits
           rdf:resource="http://creativecommons.org/ns#DerivativeWorks" />
        <cc:requires
           rdf:resource="http://creativecommons.org/ns#ShareAlike" />
      </cc:License>
    </rdf:RDF>
  </metadata>
  <g
     inkscape:label="Ebene 1"
     inkscape:groupmode="layer"
     id="layer1"
     transform="translate(0,-924.36218)">
    <g
       id="g4787"
       transform="matrix(0.78180558,0,0,0.78180558,473.45969,-298.83192)">
      <path
         style="opacity:0.6;fill:url(#linearGradient7662);fill-opacity:1;stroke:none;filter:url(#filter4435)"
         d="m -560.8125,1575.6434 c -1.0259,-0.01 -2.10431,0.047 -3.21875,0.1875 -17.79816,2.25 -17.25,17.25 -17.25,17.25 -7.28984,1.2171 -13.25,7.4675 -13.25,14 0,6.5324 7.61805,12.3188 14,14 3.79621,1 8.78125,0 8.78125,0 2.25347,3.9031 9.66184,6.5 14.84375,6.5 8.44939,0 17.125,-2.75 19.125,-6.5 0,0 34.98746,2.75 42.25,0 10.57262,-4.0034 7.28463,-16.521 0.25,-20.75 -7.03463,-4.229 -16.25,-1.25 -16.25,-1.25 0,0 -0.0204,-8.6045 -9.96875,-12.7187 -9.94833,-4.1143 -18.375,4.9687 -18.375,4.9687 0,0 -5.54894,-15.5943 -20.9375,-15.6875 z m -16.75,56.5313 c -1.46447,0 -4.0625,1.348 -4.0625,2.8125 0,1.4644 0.47303,2.8437 1.9375,2.8437 1.46446,0 3.34375,-1.3793 3.34375,-2.8437 0,-1.4645 0.24571,-2.8125 -1.21875,-2.8125 z m 57.78125,0.062 c -1.46446,0 -2.625,1.1605 -2.625,2.625 0,1.4644 0.81862,3.0312 3.34375,3.0312 1.46447,0 1.9375,-2.7855 1.9375,-4.25 0,-1.4642 -1.19178,-1.4062 -2.65625,-1.4062 z m -30.65625,4.9062 c -1.46447,0 -2.125,1.3793 -2.125,2.8438 0,1.4644 1.19178,2.625 2.65625,2.625 1.46447,0 2.84375,-0.098 2.84375,-1.5625 0,-1.4644 -1.91053,-3.9063 -3.375,-3.9063 z m -15.46875,15.5938 c -1.46446,0 -1.5625,2.4417 -1.5625,3.9062 0,1.4645 1.16054,1.2188 2.625,1.2188 1.46447,0 2.65625,-1.1919 2.65625,-2.6563 0,-1.4645 -2.25428,-2.4687 -3.71875,-2.4687 z m 59.34375,0.6875 c -1.46447,0 -4.0625,1.348 -4.0625,2.8125 0,1.4644 0.47303,2.8437 1.9375,2.8437 1.46446,0 3.34375,-1.3793 3.34375,-2.8437 0,-1.4645 0.24571,-2.8125 -1.21875,-2.8125 z m -24.625,3.9687 c -1.46447,0 -2.125,1.3793 -2.125,2.8438 0,1.4644 1.19178,2.625 2.65625,2.625 1.46447,0 2.84375,-0.098 2.84375,-1.5625 0,-1.4644 -1.91053,-3.9063 -3.375,-3.9063 z m -59.34375,0.8438 c -1.46446,0 -2.625,1.1605 -2.625,2.625 0,1.4644 0.81862,3.0312 3.34375,3.0312 1.46447,0 1.9375,-2.7855 1.9375,-4.25 0,-1.4642 -1.19178,-1.4062 -2.65625,-1.4062 z m 38.96875,7.1875 c -1.46447,0 -4.0625,1.348 -4.0625,2.8125 0,1.4644 0.47303,2.8437 1.9375,2.8437 1.46446,0 3.34375,-1.3793 3.34375,-2.8437 0,-1.4645 0.24571,-2.8125 -1.21875,-2.8125 z"
         id="path3244"
         inkscape:connector-curvature="0" />
      <path
         id="path4929"
         d="m -560.8125,1575.6434 c -1.0259,-0.01 -2.10431,0.047 -3.21875,0.1875 -17.79816,2.25 -17.25,17.25 -17.25,17.25 -7.28984,1.2171 -13.25,7.4675 -13.25,14 0,6.5324 7.61805,12.3188 14,14 3.79621,1 8.78125,0 8.78125,0 2.25347,3.9031 9.66184,6.5 14.84375,6.5 8.44939,0 17.125,-2.75 19.125,-6.5 0,0 34.98746,2.75 42.25,0 10.57262,-4.0034 7.28463,-16.521 0.25,-20.75 -7.03463,-4.229 -16.25,-1.25 -16.25,-1.25 0,0 -0.0204,-8.6045 -9.96875,-12.7187 -9.94833,-4.1143 -18.375,4.9687 -18.375,4.9687 0,0 -5.54894,-15.5943 -20.9375,-15.6875 z"
         style="fill:url(#linearGradient7664);fill-opacity:1;stroke:none"
         inkscape:connector-curvature="0" />
      <path
         id="path4927"
         transform="matrix(0.93798335,0,0,0.93798335,-193.41737,895.93628)"
         d="m -409.53125,784.90625 c -1.5613,0 -4.34375,1.43867 -4.34375,3 0,1.56122 0.5012,3.03125 2.0625,3.03125 1.56129,0 3.5625,-1.47003 3.5625,-3.03125 0,-1.56133 0.28004,-3 -1.28125,-3 z m 61.59375,0.0625 c -1.56129,0 -2.8125,1.25117 -2.8125,2.8125 0,1.56122 0.87042,3.21875 3.5625,3.21875 1.5613,0 2.0625,-2.96992 2.0625,-4.53125 0,-1.56101 -1.2512,-1.5 -2.8125,-1.5 z m -32.6875,5.25 c -1.5613,0 -2.28125,1.46992 -2.28125,3.03125 0,1.56122 1.28245,2.78125 2.84375,2.78125 1.5613,0 3.03125,-0.0949 3.03125,-1.65625 0,-1.56122 -2.03245,-4.15625 -3.59375,-4.15625 z m -16.5,16.625 c -1.56129,0 -1.65625,2.59492 -1.65625,4.15625 0,1.56133 1.25121,1.3125 2.8125,1.3125 1.5613,0 2.8125,-1.28253 2.8125,-2.84375 0,-1.56133 -2.40745,-2.625 -3.96875,-2.625 z m 63.28125,0.71875 c -1.5613,0 -4.34375,1.43867 -4.34375,3 0,1.56122 0.5012,3.03125 2.0625,3.03125 1.56129,0 3.5625,-1.47003 3.5625,-3.03125 0,-1.56133 0.28004,-3 -1.28125,-3 z m -26.25,4.25 c -1.5613,0 -2.28125,1.46992 -2.28125,3.03125 0,1.56122 1.28245,2.78125 2.84375,2.78125 1.5613,0 3.03125,-0.0949 3.03125,-1.65625 0,-1.56122 -2.03245,-4.15625 -3.59375,-4.15625 z m -63.28125,0.875 c -1.56129,0 -2.78125,1.25117 -2.78125,2.8125 0,1.56122 0.87042,3.21875 3.5625,3.21875 1.5613,0 2.0625,-2.96992 2.0625,-4.53125 0,-1.56101 -1.28245,-1.5 -2.84375,-1.5 z m 41.5625,7.6875 c -1.5613,0 -4.34375,1.43867 -4.34375,3 0,1.56122 0.5012,3.03125 2.0625,3.03125 1.56129,0 3.5625,-1.47003 3.5625,-3.03125 0,-1.56133 0.28004,-3 -1.28125,-3 z"
         style="fill:url(#linearGradient7666);fill-opacity:1;stroke:none"
         inkscape:connector-curvature="0" />
    </g>
  </g>
</svg>
