<?xml version="1.0" encoding="UTF-8" standalone="no"?>
<!-- Created with Inkscape (http://www.inkscape.org/) -->

<svg
   width="100"
   height="100"
   id="svg3513"
   version="1.1"
   inkscape:version="0.48.1 "
   sodipodi:docname="snowy_rainy.svg"
   xmlns:inkscape="http://www.inkscape.org/namespaces/inkscape"
   xmlns:sodipodi="http://sodipodi.sourceforge.net/DTD/sodipodi-0.dtd"
   xmlns:xlink="http://www.w3.org/1999/xlink"
   xmlns="http://www.w3.org/2000/svg"
   xmlns:svg="http://www.w3.org/2000/svg"
   xmlns:rdf="http://www.w3.org/1999/02/22-rdf-syntax-ns#"
   xmlns:cc="http://creativecommons.org/ns#"
   xmlns:dc="http://purl.org/dc/elements/1.1/">
  <defs
     id="defs3515">
    <linearGradient
       id="linearGradient5409"
       inkscape:swatch="solid">
      <stop
         style="stop-color:#000000;stop-opacity:1;"
         offset="0"
         id="stop5411" />
    </linearGradient>
    <linearGradient
       id="linearGradient5409-4"
       inkscape:swatch="solid">
      <stop
         style="stop-color:#000000;stop-opacity:1;"
         offset="0"
         id="stop5411-3" />
    </linearGradient>
    <linearGradient
       id="linearGradient5409-7"
       inkscape:swatch="solid">
      <stop
         style="stop-color:#000000;stop-opacity:1;"
         offset="0"
         id="stop5411-37" />
    </linearGradient>
    <linearGradient
       id="linearGradient5409-0"
       inkscape:swatch="solid">
      <stop
         style="stop-color:#000000;stop-opacity:1;"
         offset="0"
         id="stop5411-32" />
    </linearGradient>
    <linearGradient
       id="linearGradient5409-8"
       inkscape:swatch="solid">
      <stop
         style="stop-color:#000000;stop-opacity:1;"
         offset="0"
         id="stop5411-1" />
    </linearGradient>
    <linearGradient
       id="linearGradient5409-83"
       inkscape:swatch="solid">
      <stop
         style="stop-color:#000000;stop-opacity:1;"
         offset="0"
         id="stop5411-14" />
    </linearGradient>
    <linearGradient
       id="linearGradient5409-2"
       inkscape:swatch="solid">
      <stop
         style="stop-color:#000000;stop-opacity:1;"
         offset="0"
         id="stop5411-2" />
    </linearGradient>
    <linearGradient
       id="linearGradient5409-3"
       inkscape:swatch="solid">
      <stop
         style="stop-color:#000000;stop-opacity:1;"
         offset="0"
         id="stop5411-6" />
    </linearGradient>
    <linearGradient
       id="linearGradient5409-34"
       inkscape:swatch="solid">
      <stop
         style="stop-color:#000000;stop-opacity:1;"
         offset="0"
         id="stop5411-8" />
    </linearGradient>
    <linearGradient
       id="linearGradient5409-73"
       inkscape:swatch="solid">
      <stop
         style="stop-color:#000000;stop-opacity:1;"
         offset="0"
         id="stop5411-7" />
    </linearGradient>
    <linearGradient
       id="linearGradient5409-1"
       inkscape:swatch="solid">
      <stop
         style="stop-color:#000000;stop-opacity:1;"
         offset="0"
         id="stop5411-63" />
    </linearGradient>
    <linearGradient
       id="linearGradient5409-20"
       inkscape:swatch="solid">
      <stop
         style="stop-color:#000000;stop-opacity:1;"
         offset="0"
         id="stop5411-0" />
    </linearGradient>
    <linearGradient
       id="linearGradient5409-9"
       inkscape:swatch="solid">
      <stop
         style="stop-color:#000000;stop-opacity:1;"
         offset="0"
         id="stop5411-73" />
    </linearGradient>
    <linearGradient
       id="linearGradient5409-75"
       inkscape:swatch="solid">
      <stop
         style="stop-color:#000000;stop-opacity:1;"
         offset="0"
         id="stop5411-83" />
    </linearGradient>
    <linearGradient
       id="linearGradient5409-11"
       inkscape:swatch="solid">
      <stop
         style="stop-color:#000000;stop-opacity:1;"
         offset="0"
         id="stop5411-60" />
    </linearGradient>
    <linearGradient
       id="linearGradient5409-18"
       inkscape:swatch="solid">
      <stop
         style="stop-color:#000000;stop-opacity:1;"
         offset="0"
         id="stop5411-33" />
    </linearGradient>
    <linearGradient
       id="linearGradient5409-5"
       inkscape:swatch="solid">
      <stop
         style="stop-color:#000000;stop-opacity:1;"
         offset="0"
         id="stop5411-5" />
    </linearGradient>
    <linearGradient
       id="linearGradient5409-6"
       inkscape:swatch="solid">
      <stop
         style="stop-color:#000000;stop-opacity:1;"
         offset="0"
         id="stop5411-57" />
    </linearGradient>
    <linearGradient
       id="linearGradient5409-59"
       inkscape:swatch="solid">
      <stop
         style="stop-color:#000000;stop-opacity:1;"
         offset="0"
         id="stop5411-28" />
    </linearGradient>
    <linearGradient
       id="linearGradient5305"
       inkscape:swatch="solid">
      <stop
         style="stop-color:#000000;stop-opacity:1;"
         offset="0"
         id="stop5307" />
    </linearGradient>
    <linearGradient
       id="linearGradient5310"
       inkscape:swatch="solid">
      <stop
         style="stop-color:#000000;stop-opacity:1;"
         offset="0"
         id="stop5312" />
    </linearGradient>
    <linearGradient
       id="linearGradient5315"
       inkscape:swatch="solid">
      <stop
         style="stop-color:#000000;stop-opacity:1;"
         offset="0"
         id="stop5317" />
    </linearGradient>
    <linearGradient
       id="linearGradient5320"
       inkscape:swatch="solid">
      <stop
         style="stop-color:#000000;stop-opacity:1;"
         offset="0"
         id="stop5322" />
    </linearGradient>
    <linearGradient
       id="linearGradient5325"
       inkscape:swatch="solid">
      <stop
         style="stop-color:#000000;stop-opacity:1;"
         offset="0"
         id="stop5327" />
    </linearGradient>
    <linearGradient
       id="linearGradient5330"
       inkscape:swatch="solid">
      <stop
         style="stop-color:#000000;stop-opacity:1;"
         offset="0"
         id="stop5332" />
    </linearGradient>
    <linearGradient
       id="linearGradient5335"
       inkscape:swatch="solid">
      <stop
         style="stop-color:#000000;stop-opacity:1;"
         offset="0"
         id="stop5337" />
    </linearGradient>
    <linearGradient
       id="linearGradient5340"
       inkscape:swatch="solid">
      <stop
         style="stop-color:#000000;stop-opacity:1;"
         offset="0"
         id="stop5342" />
    </linearGradient>
    <linearGradient
       id="linearGradient5345"
       inkscape:swatch="solid">
      <stop
         style="stop-color:#000000;stop-opacity:1;"
         offset="0"
         id="stop5347" />
    </linearGradient>
    <linearGradient
       id="linearGradient5409-28"
       inkscape:swatch="solid">
      <stop
         style="stop-color:#000000;stop-opacity:1;"
         offset="0"
         id="stop5411-04" />
    </linearGradient>
    <linearGradient
       id="linearGradient5409-30"
       inkscape:swatch="solid">
      <stop
         style="stop-color:#000000;stop-opacity:1;"
         offset="0"
         id="stop5411-20" />
    </linearGradient>
    <filter
       inkscape:collect="always"
       id="filter4507"
       x="-0.10462178"
       width="1.2092436"
       y="-0.12363704"
       height="1.2472741"
       color-interpolation-filters="sRGB">
      <feGaussianBlur
         inkscape:collect="always"
         stdDeviation="4.6110333"
         id="feGaussianBlur4509" />
    </filter>
    <linearGradient
       id="linearGradient4704-04">
      <stop
         style="stop-color:#d7d7d7;stop-opacity:1;"
         offset="0"
         id="stop4706-19" />
      <stop
         style="stop-color:#808080;stop-opacity:1;"
         offset="1"
         id="stop4708-65" />
    </linearGradient>
    <linearGradient
       id="linearGradient4254-3">
      <stop
         id="stop4256-9"
         offset="0"
         style="stop-color:#8dd3ff;stop-opacity:1;" />
      <stop
         id="stop4258-74"
         offset="1"
         style="stop-color:#0081d3;stop-opacity:1;" />
    </linearGradient>
    <linearGradient
       id="linearGradient4712">
      <stop
         id="stop4714"
         offset="0"
         style="stop-color:#ffffff;stop-opacity:1;" />
      <stop
         id="stop4716"
         offset="1"
         style="stop-color:#ffffff;stop-opacity:1;" />
    </linearGradient>
    <linearGradient
       inkscape:collect="always"
       xlink:href="#linearGradient5409-30"
       id="linearGradient6013"
       gradientUnits="userSpaceOnUse"
       x1="-606.32935"
       y1="800.41412"
       x2="-476.95706"
       y2="800.41412" />
    <linearGradient
       inkscape:collect="always"
       xlink:href="#linearGradient4704-04"
       id="linearGradient6015"
       gradientUnits="userSpaceOnUse"
       gradientTransform="translate(-601.99677,-189.82665)"
       x1="56.568542"
       y1="932.50757"
       x2="56.568542"
       y2="1052.8176" />
    <linearGradient
       inkscape:collect="always"
       xlink:href="#linearGradient4254-3"
       id="linearGradient6017"
       gradientUnits="userSpaceOnUse"
       gradientTransform="matrix(1.0661115,0,0,1.0661115,-435.59311,-1278.0096)"
       x1="56.568542"
       y1="932.50757"
       x2="56.568542"
       y2="1052.8176" />
    <linearGradient
       inkscape:collect="always"
       xlink:href="#linearGradient4712"
       id="linearGradient6019"
       gradientUnits="userSpaceOnUse"
       gradientTransform="matrix(1.0661115,0,0,1.0661115,-435.59311,-1278.0096)"
       x1="56.568542"
       y1="932.50757"
       x2="56.568542"
       y2="1052.8176" />
  </defs>
  <sodipodi:namedview
     id="base"
     pagecolor="#ffffff"
     bordercolor="#666666"
     borderopacity="1.0"
     inkscape:pageopacity="0.0"
     inkscape:pageshadow="2"
     inkscape:zoom="1"
     inkscape:cx="-64.51693"
     inkscape:cy="58.5"
     inkscape:document-units="px"
     inkscape:current-layer="layer1"
     showgrid="false"
     inkscape:window-width="876"
     inkscape:window-height="550"
     inkscape:window-x="1870"
     inkscape:window-y="374"
     inkscape:window-maximized="0"
     inkscape:showpageshadow="2"
     inkscape:pagecheckerboard="0"
     inkscape:deskcolor="#d1d1d1" />
  <metadata
     id="metadata3518">
    <rdf:RDF>
      <cc:Work
         rdf:about="">
        <dc:format>image/svg+xml</dc:format>
        <dc:type
           rdf:resource="http://purl.org/dc/dcmitype/StillImage" />
        <dc:creator>
          <cc:Agent>
            <dc:title>MerlinTheRed</dc:title>
          </cc:Agent>
        </dc:creator>
        <dc:source>http://merlinthered.deviantart.com/art/plain-weather-icons-157162192</dc:source>
        <cc:license
           rdf:resource="http://creativecommons.org/licenses/by-nc-sa/4.0/" />
      </cc:Work>
      <cc:License
         rdf:about="http://creativecommons.org/licenses/by-nc-sa/3.0/">
        <cc:permits
           rdf:resource="http://creativecommons.org/ns#Reproduction" />
        <cc:permits
           rdf:resource="http://creativecommons.org/ns#Distribution" />
        <cc:requires
           rdf:resource="http://creativecommons.org/ns#Notice" />
        <cc:requires
           rdf:resource="http://creativecommons.org/ns#Attribution" />
        <cc:prohibits
           rdf:resource="http://creativecommons.org/ns#CommercialUse" />
        <cc:permits
           rdf:resource="http://creativecommons.org/ns#DerivativeWorks" />
        <cc:requires
           rdf:resource="http://creativecommons.org/ns#ShareAlike" />
      </cc:License>
    </rdf:RDF>
  </metadata>
  <g
     inkscape:label="Ebene 1"
     inkscape:groupmode="layer"
     id="layer1"
     transform="translate(0,-924.36218)">
    <g
       id="g4657"
       transform="matrix(0.78180558,0,0,0.78180558,473.45967,342.23466)">
      <path
         id="path3299"
         d="m -560.81249,755.66131 c -1.0259,-0.01 -2.10432,0.047 -3.21875,0.1875 -17.79816,2.25 -17.25,17.25 -17.25,17.25 -7.28985,1.2171 -13.25,7.4675 -13.25,14 0,6.5324 7.61805,12.3188 14,14 3.79621,1 8.78125,0 8.78125,0 2.25346,3.9031 9.66184,6.5 14.84375,6.5 8.44939,0 17.125,-2.75 19.125,-6.5 0,0 34.98746,2.75 42.24999,0 10.57262,-4.0034 7.28463,-16.521 0.25,-20.75 -7.03462,-4.229 -16.24999,-1.25 -16.24999,-1.25 0,0 -0.0204,-8.6045 -9.96875,-12.7187 -9.94834,-4.1143 -18.375,4.9687 -18.375,4.9687 0,0 -5.54894,-15.5943 -20.9375,-15.6875 z m -22.375,50.125 c -3.50194,3.41229 -9.32965,13.86104 -3.625,15.40604 5.70464,1.545 5.31205,-10.8966 3.625,-15.40604 z m 84.15624,0.5625 c -3.50192,3.41224 -9.36088,13.86104 -3.65624,15.40604 5.70463,1.545 5.34329,-10.8966 3.65624,-15.40604 z m -25.37499,0.3438 a 0.81470476,0.81470476 0 0 0 -0.0937,0.031 0.81470476,0.81470476 0 0 0 -0.625,0.8125 v 2.53099 l -2.25,-1.4373 a 0.8149003,0.8149003 0 1 0 -0.875,1.3748 l 3.125,1.96865 v 4.5625 l -3.96875,-2.2812 -0.15625,-3.6875 a 0.81470476,0.81470476 0 0 0 -1,-0.7812 0.81470476,0.81470476 0 0 0 -0.625,0.8437 l 0.125,2.6562 -2.15625,-1.25 a 0.81999905,0.81999905 0 1 0 -0.84375,1.4063 l 2.1875,1.25 -2.34375,1.2187 a 0.82460194,0.82460194 0 1 0 0.75,1.4688 l 3.25,-1.7188 3.96875,2.2813 -3.9375,2.2812 -3.28125,-1.7187 a 0.81470476,0.81470476 0 1 0 -0.75,1.4375 l 2.34375,1.2187 -2.1875,1.2813 a 0.81999905,0.81999905 0 1 0 0.84375,1.4062 l 2.15625,-1.25 -0.125,2.625 a 0.81470476,0.81470476 0 1 0 1.625,0.094 l 0.15625,-3.6875 3.96875,-2.2813 v 4.5625 l -3.125,1.9688 a 0.8149003,0.8149003 0 1 0 0.875,1.375 l 2.25,-1.4375 v 2.5 a 0.81470476,0.81470476 0 1 0 1.625,0 v -2.4688 l 2.21875,1.4063 a 0.8149003,0.8149003 0 1 0 0.875,-1.375 l -3.09375,-1.9688 v -4.5625 l 3.9375,2.25 0.15625,3.7188 a 0.81470476,0.81470476 0 1 0 1.625,-0.094 l -0.125,-2.625 2.1875,1.25 a 0.81470476,0.81470476 0 1 0 0.8125,-1.4062 l -2.1875,-1.2813 2.375,-1.2187 a 0.81470476,0.81470476 0 1 0 -0.75,-1.4375 l -3.28125,1.6875 -3.9375,-2.2813 3.9375,-2.25 3.28125,1.7188 a 0.82460194,0.82460194 0 1 0 0.75,-1.4688 l -2.34375,-1.2187 2.15625,-1.25 a 0.81470476,0.81470476 0 1 0 -0.8125,-1.4063 l -2.1875,1.25 0.125,-2.6562 a 0.81470476,0.81470476 0 0 0 -0.9375,-0.8437 0.81470476,0.81470476 0 0 0 -0.6875,0.7812 l -0.15625,3.6875 -3.9375,2.2812 v -4.5625 l 3.09375,-1.96865 a 0.8149003,0.8149003 0 1 0 -0.875,-1.3748 l -2.21875,1.406 v -2.49969 a 0.81470476,0.81470476 0 0 0 -0.90625,-0.8435 z m -38.3125,5.62474 a 0.60915636,0.60915636 0 0 0 -0.15625,0.031 0.60915636,0.60915636 0 0 0 -0.46875,0.625 v 1.875 l -1.6875,-1.0625 a 0.60915636,0.60915636 0 1 0 -0.625,1 l 2.3125,1.5 v 3.4063 l -2.9375,-1.7188 -0.125,-2.75 a 0.60915636,0.60915636 0 0 0 -0.71875,-0.5937 0.60915636,0.60915636 0 0 0 -0.5,0.6562 l 0.0937,1.9688 -1.625,-0.9375 a 0.61634634,0.61634634 0 1 0 -0.625,1.0625 l 1.625,0.9375 -1.75,0.9062 a 0.61498063,0.61498063 0 0 0 0.5625,1.0938 l 2.4375,-1.2813 2.96875,1.7188 -2.96875,1.6875 -2.4375,-1.2813 a 0.61498063,0.61498063 0 1 0 -0.5625,1.0938 l 1.75,0.9062 -1.625,0.9375 a 0.61634634,0.61634634 0 1 0 0.625,1.0625 l 1.625,-0.9375 -0.0937,1.9688 a 0.61017576,0.61017576 0 1 0 1.21875,0.062 l 0.125,-2.75 2.9375,-1.7188 v 3.4063 l -2.3125,1.5 a 0.60915636,0.60915636 0 1 0 0.625,1 l 1.6875,-1.0625 v 1.875 a 0.609375,0.609375 0 0 0 1.21875,0 v -1.875 l 1.6875,1.0625 a 0.60915636,0.60915636 0 1 0 0.625,-1 l -2.3125,-1.5 v -3.4063 l 2.9375,1.7188 0.125,2.75 a 0.61017576,0.61017576 0 1 0 1.21875,-0.062 l -0.0937,-1.9688 1.625,0.9375 a 0.61634634,0.61634634 0 1 0 0.625,-1.0625 l -1.625,-0.9375 1.75,-0.9062 a 0.61498063,0.61498063 0 1 0 -0.5625,-1.0938 l -2.4375,1.2813 -2.96875,-1.7188 2.96875,-1.6875 2.4375,1.2813 a 0.61498063,0.61498063 0 0 0 0.5625,-1.0938 l -1.75,-0.9062 1.625,-0.9375 a 0.61634634,0.61634634 0 1 0 -0.625,-1.0625 l -1.625,0.9375 0.0937,-1.9688 a 0.60915636,0.60915636 0 0 0 -0.71875,-0.6562 0.60915636,0.60915636 0 0 0 -0.5,0.5937 l -0.125,2.75 -2.9375,1.7188 v -3.4063 l 2.3125,-1.5 a 0.60915636,0.60915636 0 1 0 -0.625,-1 l -1.6875,1.0625 v -1.875 a 0.60915636,0.60915636 0 0 0 -0.59375,-0.6562 z m 18.21875,12.1875 c -3.50194,3.4124 -9.32965,13.83 -3.625,15.375 5.70464,1.545 5.31205,-10.8654 3.625,-15.375 z m -31.9375,2.5937 c -3.50194,3.4124 -9.32965,13.8613 -3.625,15.4063 5.70464,1.545 5.31205,-10.8967 3.625,-15.4063 z m 65.4375,2.5313 c -3.50194,3.4124 -9.32965,13.8612 -3.625,15.4062 5.70464,1.545 5.31205,-10.8966 3.625,-15.4062 z"
         style="opacity:0.6;fill:url(#linearGradient6013);fill-opacity:1;stroke:none;filter:url(#filter4507)"
         inkscape:connector-curvature="0" />
      <path
         id="path4316"
         d="m -560.81249,755.66131 c -1.0259,-0.01 -2.10432,0.047 -3.21875,0.1875 -17.79816,2.25 -17.25,17.25 -17.25,17.25 -7.28985,1.2171 -13.25,7.4675 -13.25,14 0,6.5324 7.61805,12.3188 14,14 3.79621,1 8.78125,0 8.78125,0 2.25346,3.9031 9.66184,6.5 14.84375,6.5 8.44939,0 17.125,-2.75 19.125,-6.5 0,0 34.98746,2.75 42.24999,0 10.57262,-4.0034 7.28463,-16.521 0.25,-20.75 -7.03462,-4.229 -16.24999,-1.25 -16.24999,-1.25 0,0 -0.0204,-8.6045 -9.96875,-12.7187 -9.94834,-4.1143 -18.375,4.9687 -18.375,4.9687 0,0 -5.54894,-15.5943 -20.9375,-15.6875 z"
         style="fill:url(#linearGradient6015);fill-opacity:1;stroke:none"
         inkscape:connector-curvature="0" />
      <path
         id="path4314"
         transform="matrix(0.93798819,0,0,0.93798819,-193.41557,1008.9312)"
         d="m -415.53125,-216.5625 c -3.73346,3.63788 -9.95679,14.75911 -3.875,16.40625 6.08178,1.64714 5.67358,-11.59868 3.875,-16.40625 z m 89.71875,0.59375 c -3.73344,3.63783 -9.98803,14.75911 -3.90625,16.40625 6.08177,1.64714 5.70483,-11.59868 3.90625,-16.40625 z m -48.46875,19.34375 c -3.73346,3.638 -9.95679,14.75911 -3.875,16.40625 6.08178,1.64714 5.67358,-11.59851 3.875,-16.40625 z m -34.0625,2.78125 c -3.73346,3.638 -9.95679,14.75911 -3.875,16.40625 6.08178,1.64714 5.67358,-11.59851 3.875,-16.40625 z m 69.75,2.6875 c -3.73346,3.638 -9.92554,14.79036 -3.84375,16.4375 6.08178,1.64714 5.64233,-11.62976 3.84375,-16.4375 z"
         style="fill:url(#linearGradient6017);fill-opacity:1;stroke:none"
         inkscape:connector-curvature="0" />
      <path
         id="path4310"
         transform="matrix(0.93798819,0,0,0.93798819,-193.41557,1008.9312)"
         d="m -352.84375,-215.625 a 0.86856611,0.86856611 0 0 0 -0.0312,0.0312 0.86856611,0.86856611 0 0 0 -0.0937,0.0312 0.86856611,0.86856611 0 0 0 -0.65625,0.84375 v 2.71875 l -2.40625,-1.53125 a 0.87122512,0.87122512 0 1 0 -0.9375,1.46875 l 3.34375,2.09375 v 4.84375 l -4.25,-2.4375 -0.15625,-3.90625 a 0.86856611,0.86856611 0 0 0 -1.0625,-0.84375 0.86856611,0.86856611 0 0 0 -0.6875,0.90625 l 0.15625,2.8125 -2.3125,-1.3125 a 0.87625468,0.87625468 0 1 0 -0.90625,1.5 l 2.34375,1.3125 -2.5,1.3125 a 0.88056268,0.88056268 0 0 0 0.8125,1.5625 l 3.4375,-1.84375 4.25,2.4375 -4.21875,2.4375 -3.46875,-1.84375 a 0.88056268,0.88056268 0 1 0 -0.8125,1.5625 l 2.5,1.28125 -2.34375,1.375 a 0.87625468,0.87625468 0 1 0 0.90625,1.5 l 2.3125,-1.34375 -0.15625,2.8125 a 0.87625468,0.87625468 0 1 0 1.75,0.0937 l 0.15625,-3.9375 4.25,-2.4375 v 4.875 l -3.34375,2.09375 a 0.87122512,0.87122512 0 0 0 0.9375,1.46875 l 2.40625,-1.53125 v 2.65625 a 0.86856611,0.86856611 0 1 0 1.71875,0 v -2.625 l 2.375,1.5 a 0.87122512,0.87122512 0 0 0 0.9375,-1.46875 l -3.3125,-2.09375 v -4.875 l 4.1875,2.40625 0.1875,3.96875 a 0.86856611,0.86856611 0 1 0 1.71875,-0.0937 l -0.125,-2.8125 2.3125,1.34375 a 0.86856611,0.86856611 0 1 0 0.875,-1.5 l -2.3125,-1.375 2.53125,-1.28125 a 0.88056268,0.88056268 0 1 0 -0.8125,-1.5625 l -3.5,1.8125 -4.1875,-2.4375 4.1875,-2.40625 3.5,1.84375 a 0.88056268,0.88056268 0 0 0 0.8125,-1.5625 l -2.5,-1.3125 2.28125,-1.3125 a 0.86856611,0.86856611 0 1 0 -0.875,-1.5 l -2.3125,1.3125 0.125,-2.8125 a 0.86856611,0.86856611 0 0 0 -1,-0.90625 0.86856611,0.86856611 0 0 0 -0.71875,0.84375 l -0.1875,3.90625 -4.1875,2.4375 v -4.84375 l 3.3125,-2.09375 a 0.87122512,0.87122512 0 1 0 -0.9375,-1.46875 l -2.375,1.5 v -2.6875 a 0.86856611,0.86856611 0 0 0 -0.9375,-0.90625 z m -40.875,6 a 0.6494286,0.6494286 0 0 0 -0.15625,0.0312 0.6494286,0.6494286 0 0 0 -0.5,0.6875 v 2 l -1.8125,-1.125 a 0.6494286,0.6494286 0 1 0 -0.65625,1.0625 l 2.46875,1.59375 v 3.625 l -3.15625,-1.84375 -0.125,-2.90625 a 0.6494286,0.6494286 0 0 0 -0.75,-0.65625 0.6494286,0.6494286 0 0 0 -0.53125,0.71875 l 0.0937,2.09375 -1.75,-1 a 0.65709392,0.65709392 0 1 0 -0.65625,1.125 l 1.75,1 -1.875,0.96875 a 0.65563792,0.65563792 0 0 0 0.59375,1.15625 l 2.59375,-1.34375 3.15625,1.8125 -3.15625,1.8125 -2.59375,-1.375 a 0.65563792,0.65563792 0 1 0 -0.59375,1.15625 l 1.875,0.96875 -1.75,1 a 0.66475148,0.66475148 0 0 0 0.65625,1.15625 l 1.75,-1 -0.0937,2.09375 a 0.65051539,0.65051539 0 1 0 1.28125,0.0625 l 0.125,-2.9375 3.15625,-1.84375 v 3.65625 l -2.46875,1.59375 a 0.6494286,0.6494286 0 1 0 0.65625,1.0625 l 1.8125,-1.125 v 2 a 0.6496617,0.6496617 0 0 0 1.28125,0 v -2 l 1.8125,1.125 a 0.6494286,0.6494286 0 1 0 0.65625,-1.0625 l -2.46875,-1.59375 v -3.65625 l 3.125,1.84375 0.15625,2.9375 a 0.65051539,0.65051539 0 1 0 1.28125,-0.0625 l -0.0937,-2.09375 1.75,1 a 0.66475148,0.66475148 0 0 0 0.65625,-1.15625 l -1.75,-1 1.875,-0.96875 a 0.65563792,0.65563792 0 1 0 -0.59375,-1.15625 l -2.59375,1.375 -3.15625,-1.84375 3.15625,-1.78125 2.59375,1.34375 a 0.65563792,0.65563792 0 0 0 0.59375,-1.15625 l -1.875,-0.96875 1.75,-1 a 0.65709392,0.65709392 0 0 0 -0.65625,-1.125 l -1.75,1 0.0937,-2.09375 a 0.6494286,0.6494286 0 0 0 -0.75,-0.71875 0.6494286,0.6494286 0 0 0 -0.53125,0.65625 l -0.15625,2.90625 -3.125,1.84375 v -3.625 l 2.46875,-1.59375 a 0.6494286,0.6494286 0 1 0 -0.65625,-1.0625 l -1.8125,1.125 v -2 a 0.6494286,0.6494286 0 0 0 -0.625,-0.71875 z"
         style="fill:url(#linearGradient6019);fill-opacity:1;stroke:none"
         inkscape:connector-curvature="0" />
    </g>
  </g>
</svg>
