<?xml version="1.0" encoding="UTF-8" standalone="no"?>
<!-- Created with Inkscape (http://www.inkscape.org/) -->

<svg
   width="100"
   height="100"
   id="svg3513"
   version="1.1"
   inkscape:version="0.48.1 "
   sodipodi:docname="14.svg"
   inkscape:export-filename="14.png"
   inkscape:export-xdpi="96"
   inkscape:export-ydpi="96"
   xmlns:inkscape="http://www.inkscape.org/namespaces/inkscape"
   xmlns:sodipodi="http://sodipodi.sourceforge.net/DTD/sodipodi-0.dtd"
   xmlns:xlink="http://www.w3.org/1999/xlink"
   xmlns="http://www.w3.org/2000/svg"
   xmlns:svg="http://www.w3.org/2000/svg"
   xmlns:rdf="http://www.w3.org/1999/02/22-rdf-syntax-ns#"
   xmlns:cc="http://creativecommons.org/ns#"
   xmlns:dc="http://purl.org/dc/elements/1.1/">
  <defs
     id="defs3515">
    <linearGradient
       id="linearGradient5409"
       inkscape:swatch="solid">
      <stop
         style="stop-color:#000000;stop-opacity:1;"
         offset="0"
         id="stop5411" />
    </linearGradient>
    <linearGradient
       id="linearGradient5409-4"
       inkscape:swatch="solid">
      <stop
         style="stop-color:#000000;stop-opacity:1;"
         offset="0"
         id="stop5411-3" />
    </linearGradient>
    <linearGradient
       id="linearGradient5409-7"
       inkscape:swatch="solid">
      <stop
         style="stop-color:#000000;stop-opacity:1;"
         offset="0"
         id="stop5411-37" />
    </linearGradient>
    <linearGradient
       id="linearGradient5409-0"
       inkscape:swatch="solid">
      <stop
         style="stop-color:#000000;stop-opacity:1;"
         offset="0"
         id="stop5411-32" />
    </linearGradient>
    <linearGradient
       id="linearGradient5409-8"
       inkscape:swatch="solid">
      <stop
         style="stop-color:#000000;stop-opacity:1;"
         offset="0"
         id="stop5411-1" />
    </linearGradient>
    <linearGradient
       id="linearGradient5409-83"
       inkscape:swatch="solid">
      <stop
         style="stop-color:#000000;stop-opacity:1;"
         offset="0"
         id="stop5411-14" />
    </linearGradient>
    <linearGradient
       id="linearGradient5409-2"
       inkscape:swatch="solid">
      <stop
         style="stop-color:#000000;stop-opacity:1;"
         offset="0"
         id="stop5411-2" />
    </linearGradient>
    <linearGradient
       id="linearGradient5409-3"
       inkscape:swatch="solid">
      <stop
         style="stop-color:#000000;stop-opacity:1;"
         offset="0"
         id="stop5411-6" />
    </linearGradient>
    <linearGradient
       id="linearGradient5409-34"
       inkscape:swatch="solid">
      <stop
         style="stop-color:#000000;stop-opacity:1;"
         offset="0"
         id="stop5411-8" />
    </linearGradient>
    <linearGradient
       id="linearGradient5409-73"
       inkscape:swatch="solid">
      <stop
         style="stop-color:#000000;stop-opacity:1;"
         offset="0"
         id="stop5411-7" />
    </linearGradient>
    <linearGradient
       id="linearGradient5409-1"
       inkscape:swatch="solid">
      <stop
         style="stop-color:#000000;stop-opacity:1;"
         offset="0"
         id="stop5411-63" />
    </linearGradient>
    <linearGradient
       id="linearGradient5409-20"
       inkscape:swatch="solid">
      <stop
         style="stop-color:#000000;stop-opacity:1;"
         offset="0"
         id="stop5411-0" />
    </linearGradient>
    <linearGradient
       id="linearGradient5409-9"
       inkscape:swatch="solid">
      <stop
         style="stop-color:#000000;stop-opacity:1;"
         offset="0"
         id="stop5411-73" />
    </linearGradient>
    <linearGradient
       id="linearGradient5409-75"
       inkscape:swatch="solid">
      <stop
         style="stop-color:#000000;stop-opacity:1;"
         offset="0"
         id="stop5411-83" />
    </linearGradient>
    <linearGradient
       id="linearGradient5409-11"
       inkscape:swatch="solid">
      <stop
         style="stop-color:#000000;stop-opacity:1;"
         offset="0"
         id="stop5411-60" />
    </linearGradient>
    <linearGradient
       id="linearGradient5409-18"
       inkscape:swatch="solid">
      <stop
         style="stop-color:#000000;stop-opacity:1;"
         offset="0"
         id="stop5411-33" />
    </linearGradient>
    <linearGradient
       id="linearGradient5409-5"
       inkscape:swatch="solid">
      <stop
         style="stop-color:#000000;stop-opacity:1;"
         offset="0"
         id="stop5411-5" />
    </linearGradient>
    <linearGradient
       id="linearGradient5409-6"
       inkscape:swatch="solid">
      <stop
         style="stop-color:#000000;stop-opacity:1;"
         offset="0"
         id="stop5411-57" />
    </linearGradient>
    <linearGradient
       id="linearGradient5409-59"
       inkscape:swatch="solid">
      <stop
         style="stop-color:#000000;stop-opacity:1;"
         offset="0"
         id="stop5411-28" />
    </linearGradient>
    <linearGradient
       id="linearGradient5305"
       inkscape:swatch="solid">
      <stop
         style="stop-color:#000000;stop-opacity:1;"
         offset="0"
         id="stop5307" />
    </linearGradient>
    <linearGradient
       id="linearGradient5310"
       inkscape:swatch="solid">
      <stop
         style="stop-color:#000000;stop-opacity:1;"
         offset="0"
         id="stop5312" />
    </linearGradient>
    <linearGradient
       id="linearGradient5315"
       inkscape:swatch="solid">
      <stop
         style="stop-color:#000000;stop-opacity:1;"
         offset="0"
         id="stop5317" />
    </linearGradient>
    <linearGradient
       id="linearGradient5320"
       inkscape:swatch="solid">
      <stop
         style="stop-color:#000000;stop-opacity:1;"
         offset="0"
         id="stop5322" />
    </linearGradient>
    <linearGradient
       id="linearGradient5325"
       inkscape:swatch="solid">
      <stop
         style="stop-color:#000000;stop-opacity:1;"
         offset="0"
         id="stop5327" />
    </linearGradient>
    <linearGradient
       id="linearGradient5330"
       inkscape:swatch="solid">
      <stop
         style="stop-color:#000000;stop-opacity:1;"
         offset="0"
         id="stop5332" />
    </linearGradient>
    <linearGradient
       id="linearGradient5335"
       inkscape:swatch="solid">
      <stop
         style="stop-color:#000000;stop-opacity:1;"
         offset="0"
         id="stop5337" />
    </linearGradient>
    <linearGradient
       id="linearGradient5340"
       inkscape:swatch="solid">
      <stop
         style="stop-color:#000000;stop-opacity:1;"
         offset="0"
         id="stop5342" />
    </linearGradient>
    <linearGradient
       id="linearGradient5345"
       inkscape:swatch="solid">
      <stop
         style="stop-color:#000000;stop-opacity:1;"
         offset="0"
         id="stop5347" />
    </linearGradient>
    <linearGradient
       id="linearGradient5409-28"
       inkscape:swatch="solid">
      <stop
         style="stop-color:#000000;stop-opacity:1;"
         offset="0"
         id="stop5411-04" />
    </linearGradient>
    <linearGradient
       id="linearGradient5409-30"
       inkscape:swatch="solid">
      <stop
         style="stop-color:#000000;stop-opacity:1;"
         offset="0"
         id="stop5411-20" />
    </linearGradient>
    <linearGradient
       id="linearGradient5409-89"
       inkscape:swatch="solid">
      <stop
         style="stop-color:#000000;stop-opacity:1;"
         offset="0"
         id="stop5411-4" />
    </linearGradient>
    <linearGradient
       id="linearGradient6037"
       inkscape:swatch="solid">
      <stop
         style="stop-color:#000000;stop-opacity:1;"
         offset="0"
         id="stop6039" />
    </linearGradient>
    <linearGradient
       id="linearGradient6042"
       inkscape:swatch="solid">
      <stop
         style="stop-color:#000000;stop-opacity:1;"
         offset="0"
         id="stop6044" />
    </linearGradient>
    <linearGradient
       id="linearGradient6047"
       inkscape:swatch="solid">
      <stop
         style="stop-color:#000000;stop-opacity:1;"
         offset="0"
         id="stop6049" />
    </linearGradient>
    <linearGradient
       id="linearGradient6052"
       inkscape:swatch="solid">
      <stop
         style="stop-color:#000000;stop-opacity:1;"
         offset="0"
         id="stop6054" />
    </linearGradient>
    <linearGradient
       id="linearGradient6057"
       inkscape:swatch="solid">
      <stop
         style="stop-color:#000000;stop-opacity:1;"
         offset="0"
         id="stop6059" />
    </linearGradient>
    <linearGradient
       id="linearGradient6062"
       inkscape:swatch="solid">
      <stop
         style="stop-color:#000000;stop-opacity:1;"
         offset="0"
         id="stop6064" />
    </linearGradient>
    <linearGradient
       id="linearGradient6067"
       inkscape:swatch="solid">
      <stop
         style="stop-color:#000000;stop-opacity:1;"
         offset="0"
         id="stop6069" />
    </linearGradient>
    <linearGradient
       id="linearGradient6072"
       inkscape:swatch="solid">
      <stop
         style="stop-color:#000000;stop-opacity:1;"
         offset="0"
         id="stop6074" />
    </linearGradient>
    <linearGradient
       id="linearGradient6077"
       inkscape:swatch="solid">
      <stop
         style="stop-color:#000000;stop-opacity:1;"
         offset="0"
         id="stop6079" />
    </linearGradient>
    <linearGradient
       id="linearGradient6083"
       inkscape:swatch="solid">
      <stop
         style="stop-color:#000000;stop-opacity:1;"
         offset="0"
         id="stop6085" />
    </linearGradient>
    <linearGradient
       id="linearGradient6088"
       inkscape:swatch="solid">
      <stop
         style="stop-color:#000000;stop-opacity:1;"
         offset="0"
         id="stop6090" />
    </linearGradient>
    <linearGradient
       id="linearGradient5409-78"
       inkscape:swatch="solid">
      <stop
         style="stop-color:#000000;stop-opacity:1;"
         offset="0"
         id="stop5411-61" />
    </linearGradient>
    <linearGradient
       id="linearGradient5409-87"
       inkscape:swatch="solid">
      <stop
         style="stop-color:#000000;stop-opacity:1;"
         offset="0"
         id="stop5411-52" />
    </linearGradient>
    <linearGradient
       id="linearGradient5409-60"
       inkscape:swatch="solid">
      <stop
         style="stop-color:#000000;stop-opacity:1;"
         offset="0"
         id="stop5411-09" />
    </linearGradient>
    <linearGradient
       id="linearGradient6652"
       inkscape:swatch="solid">
      <stop
         style="stop-color:#000000;stop-opacity:1;"
         offset="0"
         id="stop6654" />
    </linearGradient>
    <linearGradient
       id="linearGradient6657"
       inkscape:swatch="solid">
      <stop
         style="stop-color:#000000;stop-opacity:1;"
         offset="0"
         id="stop6659" />
    </linearGradient>
    <linearGradient
       id="linearGradient6662"
       inkscape:swatch="solid">
      <stop
         style="stop-color:#000000;stop-opacity:1;"
         offset="0"
         id="stop6664" />
    </linearGradient>
    <linearGradient
       id="linearGradient6667"
       inkscape:swatch="solid">
      <stop
         style="stop-color:#000000;stop-opacity:1;"
         offset="0"
         id="stop6669" />
    </linearGradient>
    <linearGradient
       id="linearGradient6672"
       inkscape:swatch="solid">
      <stop
         style="stop-color:#000000;stop-opacity:1;"
         offset="0"
         id="stop6674" />
    </linearGradient>
    <linearGradient
       id="linearGradient6677"
       inkscape:swatch="solid">
      <stop
         style="stop-color:#000000;stop-opacity:1;"
         offset="0"
         id="stop6679" />
    </linearGradient>
    <linearGradient
       id="linearGradient5409-15"
       inkscape:swatch="solid">
      <stop
         style="stop-color:#000000;stop-opacity:1;"
         offset="0"
         id="stop5411-31" />
    </linearGradient>
    <linearGradient
       id="linearGradient5409-836"
       inkscape:swatch="solid">
      <stop
         style="stop-color:#000000;stop-opacity:1;"
         offset="0"
         id="stop5411-74" />
    </linearGradient>
    <linearGradient
       id="linearGradient6959"
       inkscape:swatch="solid">
      <stop
         style="stop-color:#000000;stop-opacity:1;"
         offset="0"
         id="stop6961" />
    </linearGradient>
    <linearGradient
       id="linearGradient6964"
       inkscape:swatch="solid">
      <stop
         style="stop-color:#000000;stop-opacity:1;"
         offset="0"
         id="stop6966" />
    </linearGradient>
    <linearGradient
       id="linearGradient6969"
       inkscape:swatch="solid">
      <stop
         style="stop-color:#000000;stop-opacity:1;"
         offset="0"
         id="stop6971" />
    </linearGradient>
    <linearGradient
       id="linearGradient6974"
       inkscape:swatch="solid">
      <stop
         style="stop-color:#000000;stop-opacity:1;"
         offset="0"
         id="stop6976" />
    </linearGradient>
    <linearGradient
       id="linearGradient6979"
       inkscape:swatch="solid">
      <stop
         style="stop-color:#000000;stop-opacity:1;"
         offset="0"
         id="stop6981" />
    </linearGradient>
    <linearGradient
       id="linearGradient6984"
       inkscape:swatch="solid">
      <stop
         style="stop-color:#000000;stop-opacity:1;"
         offset="0"
         id="stop6986" />
    </linearGradient>
    <linearGradient
       id="linearGradient5409-64"
       inkscape:swatch="solid">
      <stop
         style="stop-color:#000000;stop-opacity:1;"
         offset="0"
         id="stop5411-9" />
    </linearGradient>
    <linearGradient
       id="linearGradient5409-91"
       inkscape:swatch="solid">
      <stop
         style="stop-color:#000000;stop-opacity:1;"
         offset="0"
         id="stop5411-79" />
    </linearGradient>
    <linearGradient
       id="linearGradient5409-74"
       inkscape:swatch="solid">
      <stop
         style="stop-color:#000000;stop-opacity:1;"
         offset="0"
         id="stop5411-93" />
    </linearGradient>
    <filter
       inkscape:collect="always"
       id="filter4423"
       x="-0.10462177"
       width="1.2092435"
       y="-0.11798295"
       height="1.2359659"
       color-interpolation-filters="sRGB">
      <feGaussianBlur
         inkscape:collect="always"
         stdDeviation="4.6110333"
         id="feGaussianBlur4425" />
    </filter>
    <linearGradient
       id="linearGradient4704-011">
      <stop
         style="stop-color:#d7d7d7;stop-opacity:1;"
         offset="0"
         id="stop4706-47" />
      <stop
         style="stop-color:#808080;stop-opacity:1;"
         offset="1"
         id="stop4708-10" />
    </linearGradient>
    <linearGradient
       id="linearGradient4712-64">
      <stop
         id="stop4714-3"
         offset="0"
         style="stop-color:#ffffff;stop-opacity:1;" />
      <stop
         id="stop4716-8"
         offset="1"
         style="stop-color:#ffffff;stop-opacity:1;" />
    </linearGradient>
    <linearGradient
       inkscape:collect="always"
       xlink:href="#linearGradient5409-74"
       id="linearGradient7392"
       gradientUnits="userSpaceOnUse"
       x1="-606.32941"
       y1="573.03052"
       x2="-476.957"
       y2="573.03052" />
    <linearGradient
       inkscape:collect="always"
       xlink:href="#linearGradient4704-011"
       id="linearGradient7394"
       gradientUnits="userSpaceOnUse"
       gradientTransform="translate(-601.125,512.85108)"
       x1="57.27565"
       y1="-0.20815283"
       x2="57.27565"
       y2="120.03327" />
    <linearGradient
       inkscape:collect="always"
       xlink:href="#linearGradient4712-64"
       id="linearGradient7396"
       gradientUnits="userSpaceOnUse"
       gradientTransform="matrix(1.066117,0,0,1.066117,-434.66403,-571.40211)"
       x1="57.27565"
       y1="-0.20815283"
       x2="57.27565"
       y2="120.03327" />
  </defs>
  <sodipodi:namedview
     id="base"
     pagecolor="#ffffff"
     bordercolor="#666666"
     borderopacity="1.0"
     inkscape:pageopacity="0.0"
     inkscape:pageshadow="2"
     inkscape:zoom="1"
     inkscape:cx="-64.51693"
     inkscape:cy="58.5"
     inkscape:document-units="px"
     inkscape:current-layer="layer1"
     showgrid="false"
     inkscape:window-width="876"
     inkscape:window-height="550"
     inkscape:window-x="1902"
     inkscape:window-y="431"
     inkscape:window-maximized="0"
     inkscape:showpageshadow="2"
     inkscape:pagecheckerboard="true"
     inkscape:deskcolor="#d1d1d1" />
  <metadata
     id="metadata3518">
    <rdf:RDF>
      <cc:Work
         rdf:about="">
        <dc:format>image/svg+xml</dc:format>
        <dc:type
           rdf:resource="http://purl.org/dc/dcmitype/StillImage" />
        <dc:creator>
          <cc:Agent>
            <dc:title>MerlinTheRed</dc:title>
          </cc:Agent>
        </dc:creator>
        <dc:source>http://merlinthered.deviantart.com/art/plain-weather-icons-157162192</dc:source>
        <cc:license
           rdf:resource="http://creativecommons.org/licenses/by-nc-sa/4.0/" />
      </cc:Work>
      <cc:License
         rdf:about="http://creativecommons.org/licenses/by-nc-sa/3.0/">
        <cc:permits
           rdf:resource="http://creativecommons.org/ns#Reproduction" />
        <cc:permits
           rdf:resource="http://creativecommons.org/ns#Distribution" />
        <cc:requires
           rdf:resource="http://creativecommons.org/ns#Notice" />
        <cc:requires
           rdf:resource="http://creativecommons.org/ns#Attribution" />
        <cc:prohibits
           rdf:resource="http://creativecommons.org/ns#CommercialUse" />
        <cc:permits
           rdf:resource="http://creativecommons.org/ns#DerivativeWorks" />
        <cc:requires
           rdf:resource="http://creativecommons.org/ns#ShareAlike" />
      </cc:License>
    </rdf:RDF>
  </metadata>
  <g
     inkscape:label="Ebene 1"
     inkscape:groupmode="layer"
     id="layer1"
     transform="translate(0,-924.36218)">
    <g
       id="g4611"
       transform="matrix(0.78180558,0,0,0.78180558,473.45969,521.68118)">
      <path
         style="opacity:0.6;fill:url(#linearGradient7392);fill-opacity:1;stroke:none;filter:url(#filter4423)"
         d="m -560.8125,526.13233 c -1.02591,-0.006 -2.10432,0.0466 -3.21875,0.1875 -17.79816,2.25 -17.25,17.25 -17.25,17.25 -7.28984,1.2171 -13.25,7.46752 -13.25,14 0,6.5324 7.61805,12.3188 14,14 3.79621,1 8.78125,0 8.78125,0 2.25347,3.9031 9.66184,6.5 14.84375,6.5 8.44939,0 17.125,-2.75 19.125,-6.5 0,0 34.98746,2.75 42.25,0 10.57262,-4.0034 7.28463,-16.52101 0.25,-20.75 -7.03463,-4.22899 -16.25,-1.25 -16.25,-1.25 0,0 -0.0204,-8.6045 -9.96875,-12.71875 -9.94833,-4.11424 -18.375,4.96875 -18.375,4.96875 0,0 -5.54894,-15.59434 -20.9375,-15.6875 z m -17,55.6875 a 0.60915636,0.60915636 0 0 0 -0.46875,0.625 v 1.875 l -1.6875,-1.0625 a 0.61119632,0.61119632 0 1 0 -0.65625,1.03125 l 2.34375,1.46875 v 3.40625 l -2.96875,-1.6875 -0.125,-2.78125 a 0.60915636,0.60915636 0 0 0 -0.625,-0.59375 0.60915636,0.60915636 0 0 0 -0.59375,0.65625 l 0.0937,1.96875 -1.625,-0.9375 a 0.60915636,0.60915636 0 1 0 -0.59375,1.0625 l 1.625,0.9375 -1.78125,0.9375 a 0.60915636,0.60915636 0 1 0 0.5625,1.0625 l 2.4375,-1.28125 2.9375,1.71875 -2.90625,1.6875 -2.46875,-1.28125 a 0.61498063,0.61498063 0 1 0 -0.5625,1.09375 l 1.75,0.90625 -1.59375,0.9375 a 0.60915636,0.60915636 0 1 0 0.59375,1.0625 l 1.625,-0.9375 -0.0937,1.96875 a 0.61017576,0.61017576 0 1 0 1.21875,0.0625 l 0.125,-2.75 2.96875,-1.6875 v 3.40625 l -2.34375,1.46875 a 0.61119632,0.61119632 0 1 0 0.65625,1.03125 l 1.6875,-1.0625 v 1.84375 a 0.609375,0.609375 0 0 0 1.21875,0 v -1.84375 l 1.65625,1.0625 a 0.61119632,0.61119632 0 1 0 0.65625,-1.03125 l -2.3125,-1.46875 v -3.40625 l 2.9375,1.6875 0.125,2.75 a 0.61017576,0.61017576 0 1 0 1.21875,-0.0625 l -0.0937,-1.96875 1.625,0.9375 a 0.60915636,0.60915636 0 1 0 0.59375,-1.0625 l -1.59375,-0.9375 1.75,-0.90625 a 0.61498063,0.61498063 0 1 0 -0.5625,-1.09375 l -2.46875,1.28125 -2.9375,-1.6875 2.96875,-1.71875 2.4375,1.28125 a 0.60915636,0.60915636 0 1 0 0.5625,-1.0625 l -1.78125,-0.9375 1.625,-0.9375 a 0.60915636,0.60915636 0 1 0 -0.59375,-1.0625 l -1.625,0.9375 0.0937,-1.96875 a 0.60915636,0.60915636 0 0 0 -0.65625,-0.65625 0.60915636,0.60915636 0 0 0 -0.5625,0.59375 l -0.125,2.78125 -2.9375,1.6875 v -3.40625 l 2.3125,-1.46875 a 0.61119632,0.61119632 0 1 0 -0.65625,-1.03125 l -1.65625,1.0625 v -1.875 a 0.60915636,0.60915636 0 0 0 -0.6875,-0.625 0.60915636,0.60915636 0 0 0 -0.0625,0 z m 59.96875,1.53125 a 0.81470476,0.81470476 0 0 0 -0.65625,0.84375 v 2.46875 l -2.21875,-1.40625 a 0.8149003,0.8149003 0 1 0 -0.875,1.375 l 3.09375,1.96875 v 4.5625 l -3.9375,-2.28125 -0.15625,-3.6875 a 0.81470476,0.81470476 0 0 0 -0.9375,-0.78125 0.81470476,0.81470476 0 0 0 -0.6875,0.84375 l 0.125,2.65625 -2.1875,-1.25 a 0.81470476,0.81470476 0 1 0 -0.8125,1.40625 l 2.1875,1.28125 -2.375,1.21875 a 0.81804001,0.81804001 0 0 0 0.78125,1.4375 l 3.25,-1.6875 3.9375,2.25 -3.9375,2.28125 -3.25,-1.71875 a 0.83182405,0.83182405 0 1 0 -0.78125,1.46875 l 2.34375,1.21875 -2.15625,1.25 a 0.81470476,0.81470476 0 1 0 0.8125,1.40625 l 2.1875,-1.25 -0.125,2.65625 a 0.81470476,0.81470476 0 1 0 1.625,0.0625 l 0.15625,-3.6875 3.9375,-2.25 v 4.53125 l -3.09375,1.96875 a 0.8149003,0.8149003 0 1 0 0.875,1.375 l 2.21875,-1.40625 v 2.5 a 0.828125,0.828125 0 0 0 1.65625,0 v -2.5 l 2.21875,1.40625 a 0.8149003,0.8149003 0 1 0 0.875,-1.375 l -3.09375,-1.96875 v -4.5625 l 3.9375,2.28125 0.15625,3.6875 a 0.81470476,0.81470476 0 1 0 1.625,-0.0625 l -0.125,-2.65625 2.1875,1.25 a 0.81470476,0.81470476 0 1 0 0.8125,-1.40625 l -2.15625,-1.25 2.34375,-1.21875 a 0.83182405,0.83182405 0 0 0 -0.78125,-1.46875 l -3.25,1.71875 -3.9375,-2.28125 3.9375,-2.25 3.25,1.6875 a 0.81804001,0.81804001 0 0 0 0.78125,-1.4375 l -2.375,-1.21875 2.1875,-1.28125 a 0.81470476,0.81470476 0 1 0 -0.8125,-1.40625 l -2.1875,1.25 0.125,-2.65625 a 0.81470476,0.81470476 0 0 0 -0.96875,-0.84375 0.81470476,0.81470476 0 0 0 -0.65625,0.78125 l -0.15625,3.6875 -3.9375,2.28125 v -4.5625 l 3.09375,-1.96875 a 0.8149003,0.8149003 0 1 0 -0.875,-1.375 l -2.21875,1.40625 v -2.46875 a 0.81470476,0.81470476 0 0 0 -0.90625,-0.84375 0.81470476,0.81470476 0 0 0 -0.0937,0 z m -33.3125,19.78125 a 0.60915636,0.60915636 0 0 0 -0.15625,0.0312 0.60915636,0.60915636 0 0 0 -0.46875,0.625 v 1.84375 l -1.6875,-1.0625 a 0.61117523,0.61117523 0 0 0 -0.65625,1.03125 l 2.34375,1.46875 v 3.40625 l -2.96875,-1.6875 -0.125,-2.75 a 0.60915636,0.60915636 0 0 0 -0.6875,-0.59375 0.60915636,0.60915636 0 0 0 -0.53125,0.65625 l 0.0937,1.96875 -1.625,-0.9375 a 0.60915636,0.60915636 0 1 0 -0.59375,1.0625 l 1.59375,0.9375 -1.75,0.90625 a 0.6149584,0.6149584 0 1 0 0.5625,1.09375 l 2.46875,-1.28125 2.90625,1.6875 -2.9375,1.71875 -2.4375,-1.28125 a 0.60915636,0.60915636 0 1 0 -0.5625,1.0625 l 1.78125,0.9375 -1.625,0.9375 a 0.60915636,0.60915636 0 1 0 0.59375,1.0625 l 1.625,-0.9375 -0.0937,1.96875 a 0.61018861,0.61018861 0 0 0 1.21875,0.0625 l 0.125,-2.78125 2.96875,-1.6875 v 3.40625 l -2.34375,1.46875 a 0.61117523,0.61117523 0 0 0 0.65625,1.03125 l 1.6875,-1.0625 v 1.875 a 0.609375,0.609375 0 0 0 1.21875,0 v -1.875 l 1.65625,1.0625 a 0.61117523,0.61117523 0 1 0 0.65625,-1.03125 l -2.3125,-1.46875 v -3.40625 l 2.9375,1.6875 0.125,2.78125 a 0.61018861,0.61018861 0 0 0 1.21875,-0.0625 l -0.0937,-1.96875 1.625,0.9375 a 0.60915636,0.60915636 0 1 0 0.59375,-1.0625 l -1.625,-0.9375 1.78125,-0.9375 a 0.60915636,0.60915636 0 1 0 -0.5625,-1.0625 l -2.4375,1.28125 -2.96875,-1.71875 2.9375,-1.6875 2.46875,1.28125 a 0.6149584,0.6149584 0 1 0 0.5625,-1.09375 l -1.75,-0.90625 1.59375,-0.9375 a 0.60915636,0.60915636 0 1 0 -0.59375,-1.0625 l -1.625,0.9375 0.0937,-1.96875 A 0.60915636,0.60915636 0 0 0 -547,605.44478 a 0.60915636,0.60915636 0 0 0 -0.5,0.59375 l -0.125,2.75 -2.9375,1.6875 v -3.40625 l 2.3125,-1.46875 a 0.61117523,0.61117523 0 0 0 -0.65625,-1.03125 l -1.65625,1.0625 v -1.84375 a 0.60915636,0.60915636 0 0 0 -0.59375,-0.65625 z"
         id="path3238"
         inkscape:connector-curvature="0" />
      <path
         id="path4637"
         d="m -560.8125,526.13233 c -1.02591,-0.006 -2.10432,0.0466 -3.21875,0.1875 -17.79816,2.25 -17.25,17.25 -17.25,17.25 -7.28984,1.2171 -13.25,7.46752 -13.25,14 0,6.5324 7.61805,12.3188 14,14 3.79621,1 8.78125,0 8.78125,0 2.25347,3.9031 9.66184,6.5 14.84375,6.5 8.44939,0 17.125,-2.75 19.125,-6.5 0,0 34.98746,2.75 42.25,0 10.57262,-4.0034 7.28463,-16.52101 0.25,-20.75 -7.03463,-4.22899 -16.25,-1.25 -16.25,-1.25 0,0 -0.0204,-8.6045 -9.96875,-12.71875 -9.94833,-4.11424 -18.375,4.96875 -18.375,4.96875 0,0 -5.54894,-15.59434 -20.9375,-15.6875 z"
         style="fill:url(#linearGradient7394);fill-opacity:1;stroke:none"
         inkscape:connector-curvature="0" />
      <path
         id="path4635"
         transform="matrix(0.93798335,0,0,0.93798335,-193.41737,1048.8167)"
         d="m -409.8125,-497.875 a 0.64943195,0.64943195 0 0 0 -0.5,0.65625 v 2 l -1.78125,-1.125 a 0.65438724,0.65438724 0 1 0 -0.71875,1.09375 l 2.5,1.5625 v 3.65625 l -3.15625,-1.8125 -0.125,-2.96875 a 0.64943195,0.64943195 0 0 0 -0.6875,-0.625 0.64943195,0.64943195 0 0 0 -0.625,0.6875 l 0.0937,2.09375 -1.71875,-1 a 0.66475148,0.66475148 0 1 0 -0.65625,1.15625 l 1.75,1 -1.90625,1 a 0.64943195,0.64943195 0 1 0 0.59375,1.125 l 2.59375,-1.375 3.15625,1.84375 -3.09375,1.78125 -2.65625,-1.34375 a 0.6556413,0.6556413 0 1 0 -0.59375,1.15625 l 1.875,0.96875 -1.71875,1 a 0.65120831,0.65120831 0 1 0 0.65625,1.125 l 1.71875,-1 -0.0937,2.09375 a 0.65699363,0.65699363 0 1 0 1.3125,0.0625 l 0.125,-2.90625 3.15625,-1.8125 v 3.625 l -2.5,1.5625 a 0.66750029,0.66750029 0 1 0 0.71875,1.125 l 1.78125,-1.15625 v 1.96875 a 0.65625,0.65625 0 0 0 1.3125,0 v -1.96875 l 1.75,1.15625 a 0.66750029,0.66750029 0 1 0 0.71875,-1.125 L -409,-484.15625 v -3.625 l 3.125,1.8125 0.125,2.90625 a 0.65699363,0.65699363 0 1 0 1.3125,-0.0625 l -0.0937,-2.09375 1.71875,1 a 0.64943195,0.64943195 0 1 0 0.625,-1.125 l -1.6875,-1 1.875,-0.96875 a 0.6571794,0.6571794 0 1 0 -0.625,-1.15625 l -2.625,1.34375 -3.125,-1.78125 3.15625,-1.84375 2.59375,1.375 A 0.64943195,0.64943195 0 1 0 -402,-490.5 l -1.90625,-1 1.71875,-1 a 0.6571794,0.6571794 0 1 0 -0.625,-1.15625 l -1.71875,1 0.0937,-2.09375 a 0.64943195,0.64943195 0 0 0 -0.71875,-0.6875 0.64943195,0.64943195 0 0 0 -0.59375,0.625 l -0.125,2.96875 -3.125,1.8125 v -3.65625 l 2.46875,-1.5625 a 0.65438724,0.65438724 0 1 0 -0.71875,-1.09375 l -1.75,1.125 v -2 a 0.64943195,0.64943195 0 0 0 -0.75,-0.65625 0.64943195,0.64943195 0 0 0 -0.0625,0 z m 63.9375,1.625 a 0.86857059,0.86857059 0 0 0 -0.6875,0.90625 v 2.625 l -2.375,-1.5 a 0.87122512,0.87122512 0 1 0 -0.9375,1.46875 l 3.3125,2.09375 v 4.875 l -4.21875,-2.4375 -0.15625,-3.9375 a 0.86857059,0.86857059 0 0 0 -1,-0.8125 0.86857059,0.86857059 0 0 0 -0.75,0.90625 l 0.15625,2.8125 -2.34375,-1.3125 a 0.86857059,0.86857059 0 1 0 -0.875,1.5 l 2.34375,1.34375 -2.53125,1.3125 a 0.87416255,0.87416255 0 0 0 0.84375,1.53125 l 3.46875,-1.8125 4.1875,2.40625 -4.1875,2.4375 -3.46875,-1.84375 a 0.88787954,0.88787954 0 1 0 -0.84375,1.5625 l 2.5,1.3125 -2.3125,1.34375 a 0.86857059,0.86857059 0 1 0 0.875,1.5 l 2.34375,-1.34375 -0.15625,2.8125 a 0.87625468,0.87625468 0 1 0 1.75,0.0937 l 0.15625,-3.9375 4.21875,-2.40625 v 4.84375 l -3.3125,2.09375 a 0.87122512,0.87122512 0 0 0 0.9375,1.46875 l 2.375,-1.5 v 2.65625 a 0.88287814,0.88287814 0 0 0 1.75,0 v -2.65625 l 2.375,1.5 a 0.87122512,0.87122512 0 1 0 0.9375,-1.46875 l -3.3125,-2.09375 v -4.875 l 4.1875,2.4375 0.1875,3.9375 a 0.86857059,0.86857059 0 1 0 1.71875,-0.0937 l -0.125,-2.8125 2.34375,1.34375 a 0.86857059,0.86857059 0 1 0 0.84375,-1.5 l -2.28125,-1.34375 2.5,-1.3125 a 0.88787954,0.88787954 0 0 0 -0.84375,-1.5625 l -3.46875,1.84375 -4.1875,-2.4375 4.1875,-2.40625 3.46875,1.8125 a 0.87416255,0.87416255 0 0 0 0.84375,-1.53125 l -2.53125,-1.3125 2.3125,-1.34375 a 0.86857059,0.86857059 0 1 0 -0.84375,-1.5 l -2.34375,1.3125 0.125,-2.8125 a 0.86857059,0.86857059 0 0 0 -1.03125,-0.90625 0.86857059,0.86857059 0 0 0 -0.6875,0.8125 l -0.1875,3.9375 -4.1875,2.4375 v -4.875 L -341.5,-492.75 a 0.87122512,0.87122512 0 1 0 -0.9375,-1.46875 l -2.375,1.5 v -2.625 a 0.86857059,0.86857059 0 0 0 -0.96875,-0.90625 0.86857059,0.86857059 0 0 0 -0.0937,0 z m -35.59375,21.09375 a 0.64943195,0.64943195 0 0 0 -0.0937,0.0312 0.64943195,0.64943195 0 0 0 -0.5,0.6875 v 1.9375 l -1.78125,-1.125 a 0.65438724,0.65438724 0 0 0 -0.71875,1.09375 l 2.5,1.5625 v 3.65625 l -3.15625,-1.8125 -0.125,-2.9375 a 0.64943195,0.64943195 0 0 0 -0.75,-0.625 0.64943195,0.64943195 0 0 0 -0.5625,0.6875 l 0.0937,2.125 -1.71875,-1 a 0.64943195,0.64943195 0 1 0 -0.625,1.125 l 1.6875,1 -1.875,0.96875 a 0.6556176,0.6556176 0 0 0 0.59375,1.15625 l 2.65625,-1.375 3.09375,1.8125 -3.125,1.84375 -2.625,-1.375 a 0.64943195,0.64943195 0 1 0 -0.59375,1.125 l 1.90625,1 -1.71875,1 a 0.64943195,0.64943195 0 1 0 0.625,1.125 l 1.71875,-1 -0.0937,2.09375 a 0.65792198,0.65792198 0 0 0 1.3125,0.0937 l 0.125,-2.96875 3.15625,-1.8125 v 3.625 l -2.5,1.5625 a 0.66750029,0.66750029 0 0 0 0.71875,1.125 l 1.78125,-1.15625 v 2 a 0.65625,0.65625 0 0 0 1.3125,0 v -2 l 1.75,1.15625 a 0.66750029,0.66750029 0 1 0 0.71875,-1.125 l -2.46875,-1.5625 v -3.625 l 3.125,1.8125 0.125,2.96875 a 0.65792198,0.65792198 0 0 0 1.3125,-0.0937 l -0.0937,-2.09375 1.71875,1 a 0.64943195,0.64943195 0 1 0 0.625,-1.125 l -1.71875,-1 1.90625,-1 a 0.64943195,0.64943195 0 1 0 -0.625,-1.125 l -2.59375,1.375 -3.15625,-1.84375 3.125,-1.8125 2.625,1.375 a 0.6571794,0.6571794 0 0 0 0.625,-1.15625 l -1.875,-0.96875 1.6875,-1 a 0.64943195,0.64943195 0 1 0 -0.625,-1.125 l -1.71875,1 0.0937,-2.125 a 0.64943195,0.64943195 0 0 0 -0.78125,-0.6875 0.64943195,0.64943195 0 0 0 -0.53125,0.625 l -0.125,2.9375 -3.125,1.8125 v -3.65625 l 2.46875,-1.5625 A 0.65438724,0.65438724 0 0 0 -379,-473.625 l -1.75,1.125 v -1.9375 a 0.64943195,0.64943195 0 0 0 -0.65625,-0.71875 0.64943195,0.64943195 0 0 0 -0.0625,0 z"
         style="fill:url(#linearGradient7396);fill-opacity:1;stroke:none"
         inkscape:connector-curvature="0" />
    </g>
  </g>
</svg>
